<svg id="Group_2" data-name="Group 2" xmlns="http://www.w3.org/2000/svg" width="81.943" height="40.749" viewBox="0 0 81.943 40.749">
  <g id="Group_2-2" data-name="Group 2">
    <g id="Group_1" data-name="Group 1">
      <path id="Path_1" data-name="Path 1" d="M36.869,4.983A63.241,63.241,0,0,1,73.053,16.291H83.73A59.786,59.786,0,0,0,4.358,13.924,63.239,63.239,0,0,1,36.869,4.983Z" transform="translate(-1.788)" fill="#006d46"/>
      <path id="Path_2" data-name="Path 2" d="M53.579,12.246A63.647,63.647,0,0,0,.156,20.059c-.052.048-.1.1-.156.144H10.875a53.113,53.113,0,0,1,42.7-7.957Z" transform="translate(0 -3.912)" fill="#245489"/>
    </g>
    <path id="Path_3" data-name="Path 3" d="M16.289,30.672V44.414c0,5.441-2.641,8.9-8.522,8.9A10.745,10.745,0,0,1,.283,50.83l2.264-3.082a7.279,7.279,0,0,0,5.189,2.17c3.648,0,4.78-2.076,4.78-5.063v-1.1h-.063a6.144,6.144,0,0,1-4.937,2.2A7.394,7.394,0,0,1,0,38.219c0-4.465,2.8-7.924,7.453-7.924a5.818,5.818,0,0,1,5.189,2.641H12.7V30.672ZM3.774,38.188a4.356,4.356,0,0,0,4.434,4.371,4.242,4.242,0,0,0,4.5-4.434,4.2,4.2,0,0,0-4.466-4.434A4.267,4.267,0,0,0,3.774,38.188Z" transform="translate(0 -12.565)" fill="#245489"/>
    <rect id="Rectangle_1" data-name="Rectangle 1" width="3.774" height="15.095" transform="translate(19.07 18.148)" fill="#1a5b7e"/>
    <path id="Path_4" data-name="Path 4" d="M51.828,34.855a3.424,3.424,0,0,0-2.956-1.541c-1.007,0-2.2.472-2.2,1.6,0,2.7,8.144.5,8.144,6.384,0,3.585-3.428,4.843-6.509,4.843a7.381,7.381,0,0,1-5.881-2.327l2.516-2.359a4.616,4.616,0,0,0,3.585,1.855c1.1,0,2.516-.534,2.516-1.729,0-3.113-8.144-.661-8.144-6.415,0-3.365,3.019-4.874,6.069-4.874a6.533,6.533,0,0,1,5.377,2.3Z" transform="translate(-17.402 -12.526)" fill="#105f70"/>
    <path id="Path_5" data-name="Path 5" d="M64.959,31.1V27.9h3.113V23.524h3.774V27.9H76V31.1H71.846v6.6c0,1.509.44,2.453,2.107,2.453A3.935,3.935,0,0,0,76,39.688v3.176a7.959,7.959,0,0,1-2.988.5c-3.994,0-4.937-1.792-4.937-5.346V31.1Z" transform="translate(-26.644 -9.741)" fill="#006464"/>
    <path id="Path_6" data-name="Path 6" d="M90.272,39.541a3.911,3.911,0,0,0,4.057,3.585,4.961,4.961,0,0,0,4.056-2.044l2.7,2.044a7.862,7.862,0,0,1-6.384,3.019c-4.56,0-8.208-3.176-8.208-7.925s3.648-7.924,8.208-7.924c4.214,0,7.076,2.956,7.076,8.208v1.038Zm7.736-2.831c-.032-2.2-1.478-3.585-3.837-3.585a3.753,3.753,0,0,0-3.9,3.585Z" transform="translate(-35.479 -12.526)" fill="#006855"/>
    <path id="Path_7" data-name="Path 7" d="M126.8,35.2a4.175,4.175,0,0,0-2.861-1.509,4.529,4.529,0,0,0,0,9.057,3.621,3.621,0,0,0,2.924-1.415l2.516,2.7a8.538,8.538,0,0,1-5.44,2.107c-4.56,0-8.208-3.176-8.208-7.925s3.648-7.924,8.208-7.924a7.373,7.373,0,0,1,5.472,2.3Z" transform="translate(-47.47 -12.526)" fill="#006d46"/>
  </g>
</svg>
