<svg id="Layer_2" data-name="Layer 2" xmlns="http://www.w3.org/2000/svg" width="133.791" height="47.416" viewBox="0 0 133.791 47.416">
  <g id="Layer_1" data-name="Layer 1">
    <path id="Path_32" data-name="Path 32" d="M243.327,77.714,238.84,73.8a13.648,13.648,0,0,1,0,17.258l4.487-3.914,5.407-4.714Z" transform="translate(-197.385 -60.991)" fill="#245a81"/>
    <path id="Path_33" data-name="Path 33" d="M41.015,87.144,45.5,91.058a13.643,13.643,0,0,1,0-17.258l-4.489,3.914-5.4,4.716Z" transform="translate(-29.429 -60.991)" fill="#245a81"/>
    <path id="Path_34" data-name="Path 34" d="M104.142,76l2.508-4.037A8.291,8.291,0,0,1,111.4,56.8a8.206,8.206,0,0,1,4.011,1.069l1.637-2.635a11.315,11.315,0,0,0-6.988-1.5A11.56,11.56,0,0,0,99.878,65.571a11.909,11.909,0,0,0,.736,4.129,21.759,21.759,0,0,0,3.529,6.3" transform="translate(-82.542 -44.35)" fill="#245a81"/>
    <path id="Path_35" data-name="Path 35" d="M152.989,76.76l-1.758,2.833a8.331,8.331,0,0,1-6.96,12.9,7.775,7.775,0,0,1-1.01-.069l-3.451,5.554a41.98,41.98,0,0,0,4.287,3.52.521.521,0,0,0,.481-.033,29.47,29.47,0,0,0,9.338-10.135,14.439,14.439,0,0,0,1.72-8.647,11.089,11.089,0,0,0-2.647-5.92" transform="translate(-115.543 -63.437)" fill="#245a81"/>
    <path id="Path_36" data-name="Path 36" d="M159.127,99.158V96.945h2.213v2.213a3.088,3.088,0,0,1-1.8,3.138l-.536-.831a2.339,2.339,0,0,0,1.238-2.308Zm0-8.158h2.213v2.223h-2.213Z" transform="translate(-131.402 -75.205)" fill="#245a81"/>
    <path id="Path_37" data-name="Path 37" d="M338.376,68.563H336.5l-2.256-3.775a8.057,8.057,0,0,0-.6-.9,3.349,3.349,0,0,0-.6-.606,2.083,2.083,0,0,0-.658-.347,2.724,2.724,0,0,0-.793-.108H330.3v5.728H328.72V55.1h4.018a5.728,5.728,0,0,1,1.63.22,3.662,3.662,0,0,1,1.295.672,3.125,3.125,0,0,1,.859,1.121,3.722,3.722,0,0,1,.311,1.573,3.789,3.789,0,0,1-.212,1.291,3.361,3.361,0,0,1-.6,1.041,3.629,3.629,0,0,1-.939.785,4.776,4.776,0,0,1-1.236.5v.038a2.884,2.884,0,0,1,.588.347,3.334,3.334,0,0,1,.474.456,6.253,6.253,0,0,1,.446.6q.219.333.493.774ZM330.3,56.525v4.883h2.14a3.227,3.227,0,0,0,1.094-.174,2.5,2.5,0,0,0,.868-.521,2.341,2.341,0,0,0,.573-.816,2.747,2.747,0,0,0,.215-1.081,2.119,2.119,0,0,0-.694-1.685,2.993,2.993,0,0,0-2.024-.606Z" transform="translate(-271.664 -45.535)" fill="#245a81"/>
    <path id="Path_38" data-name="Path 38" d="M400.569,67.72a5.905,5.905,0,0,1-4.586-1.888,7.018,7.018,0,0,1-1.724-4.915,7.421,7.421,0,0,1,1.757-5.183,6.118,6.118,0,0,1,4.778-1.934,5.776,5.776,0,0,1,4.492,1.878,7.024,7.024,0,0,1,1.7,4.91,7.422,7.422,0,0,1-1.746,5.207,6.028,6.028,0,0,1-4.676,1.909m.113-12.481a4.323,4.323,0,0,0-3.445,1.534,6.808,6.808,0,0,0-.033,8.024,4.217,4.217,0,0,0,3.366,1.517,4.421,4.421,0,0,0,3.492-1.446,5.909,5.909,0,0,0,1.277-4.048,6.171,6.171,0,0,0-1.239-4.121,4.27,4.27,0,0,0-3.418-1.461" transform="translate(-325.828 -44.462)" fill="#245a81"/>
    <path id="Path_39" data-name="Path 39" d="M492.276,66.9a7.915,7.915,0,0,1-3.718.79,6,6,0,0,1-4.6-1.85,6.825,6.825,0,0,1-1.727-4.86,7.152,7.152,0,0,1,1.944-5.219A6.6,6.6,0,0,1,489.1,53.77a7.929,7.929,0,0,1,3.173.554v1.682a6.422,6.422,0,0,0-3.192-.807,4.878,4.878,0,0,0-3.761,1.562,5.865,5.865,0,0,0-1.441,4.14,5.559,5.559,0,0,0,1.347,3.921,4.577,4.577,0,0,0,3.536,1.46,6.636,6.636,0,0,0,3.511-.9Z" transform="translate(-398.529 -44.437)" fill="#245a81"/>
    <path id="Path_40" data-name="Path 40" d="M569.586,68.564h-2.2l-5.207-6.16a3.648,3.648,0,0,1-.358-.469h-.036v6.629H560.21V55.1h1.578v6.328h.036a3.6,3.6,0,0,1,.358-.46l5.034-5.868h1.963l-5.769,6.459Z" transform="translate(-462.974 -45.536)" fill="#245a81"/>
    <path id="Path_41" data-name="Path 41" d="M635.985,68.564H628.85V55.1h6.835v1.427h-5.257V61h4.863v1.418h-4.863v4.714h5.558Z" transform="translate(-519.701 -45.536)" fill="#245a81"/>
    <path id="Path_42" data-name="Path 42" d="M690.732,56.527h-3.886V68.564h-1.578V56.527H681.39V55.1h9.342Z" transform="translate(-563.121 -45.536)" fill="#245a81"/>
    <path id="Path_43" data-name="Path 43" d="M335.575,157.426a5.3,5.3,0,0,1-2.527.545,4.068,4.068,0,0,1-3.124-1.257,4.648,4.648,0,0,1-1.173-3.3,4.86,4.86,0,0,1,1.321-3.548,4.482,4.482,0,0,1,3.348-1.352,5.365,5.365,0,0,1,2.158.377v1.142a4.372,4.372,0,0,0-2.17-.548,3.332,3.332,0,0,0-2.555,1.052,3.955,3.955,0,0,0-.979,2.814,3.772,3.772,0,0,0,.915,2.663,3.121,3.121,0,0,0,2.4.993,4.513,4.513,0,0,0,2.387-.613Z" transform="translate(-271.689 -122.736)" fill="#245a81"/>
    <path id="Path_44" data-name="Path 44" d="M384.972,170.422a3.026,3.026,0,0,1-2.314-.916,3.419,3.419,0,0,1-.868-2.43,3.533,3.533,0,0,1,.9-2.571,3.232,3.232,0,0,1,2.43-.925,2.93,2.93,0,0,1,2.281.9,3.567,3.567,0,0,1,.819,2.494,3.514,3.514,0,0,1-.883,2.5,3.091,3.091,0,0,1-2.364.944m.076-5.959a1.992,1.992,0,0,0-1.6.686,2.826,2.826,0,0,0-.587,1.892,2.663,2.663,0,0,0,.594,1.831,2.012,2.012,0,0,0,1.588.668,1.925,1.925,0,0,0,1.562-.656,2.812,2.812,0,0,0,.545-1.869,2.927,2.927,0,0,0-.545-1.888,1.867,1.867,0,0,0-1.562-.663" transform="translate(-315.523 -135.187)" fill="#245a81"/>
    <path id="Path_45" data-name="Path 45" d="M438.436,156.03h-1.041v-1.111h-.026a2.628,2.628,0,0,1-4.213.394,3.565,3.565,0,0,1-.736-2.388,3.949,3.949,0,0,1,.816-2.6,2.7,2.7,0,0,1,2.177-.975,2.094,2.094,0,0,1,1.958,1.059h.026V146.36h1.041Zm-1.041-2.951v-.967a1.869,1.869,0,0,0-.521-1.34,1.75,1.75,0,0,0-1.326-.548,1.81,1.81,0,0,0-1.507.694,3.1,3.1,0,0,0-.548,1.941,2.791,2.791,0,0,0,.521,1.783,1.718,1.718,0,0,0,1.413.653,1.786,1.786,0,0,0,1.418-.63,2.352,2.352,0,0,0,.547-1.6" transform="translate(-357.365 -120.956)" fill="#245a81"/>
    <path id="Path_46" data-name="Path 46" d="M488.885,167.228h-4.612a2.449,2.449,0,0,0,.588,1.685,2.01,2.01,0,0,0,1.543.592,3.214,3.214,0,0,0,2.029-.726v.982a3.811,3.811,0,0,1-2.277.625,2.756,2.756,0,0,1-2.177-.89,3.66,3.66,0,0,1-.79-2.5,3.565,3.565,0,0,1,.868-2.484,2.777,2.777,0,0,1,2.145-.96,2.454,2.454,0,0,1,1.984.83,3.445,3.445,0,0,1,.7,2.3Zm-1.073-.885a2.087,2.087,0,0,0-.437-1.411,1.491,1.491,0,0,0-1.2-.5,1.694,1.694,0,0,0-1.257.521,2.4,2.4,0,0,0-.637,1.389Z" transform="translate(-399.323 -135.161)" fill="#245a81"/>
    <path id="Path_47" data-name="Path 47" d="M535.783,157.425a5.286,5.286,0,0,1-2.525.545,4.068,4.068,0,0,1-3.124-1.257,4.648,4.648,0,0,1-1.173-3.3,4.864,4.864,0,0,1,1.319-3.548,4.481,4.481,0,0,1,3.35-1.352,5.351,5.351,0,0,1,2.156.377v1.142a4.366,4.366,0,0,0-2.168-.548,3.325,3.325,0,0,0-2.555,1.052,3.975,3.975,0,0,0-.979,2.814,3.772,3.772,0,0,0,.915,2.663,3.121,3.121,0,0,0,2.4.993,4.513,4.513,0,0,0,2.385-.613Z" transform="translate(-437.148 -122.736)" fill="#245a81"/>
    <path id="Path_48" data-name="Path 48" d="M586.952,170.257h-1.041v-1.022h-.026a2.19,2.19,0,0,1-2.013,1.184,2.137,2.137,0,0,1-1.527-.521,1.79,1.79,0,0,1-.552-1.371q0-1.831,2.156-2.131l1.96-.274q0-1.665-1.347-1.665a3.211,3.211,0,0,0-2.13.8v-1.071a4.03,4.03,0,0,1,2.218-.613q2.305,0,2.3,2.43Zm-1.041-3.3-1.576.217a2.552,2.552,0,0,0-1.1.359,1.038,1.038,0,0,0-.37.916.994.994,0,0,0,.347.781,1.324,1.324,0,0,0,.909.3,1.673,1.673,0,0,0,1.284-.547,1.944,1.944,0,0,0,.509-1.38Z" transform="translate(-480.809 -135.184)" fill="#245a81"/>
    <path id="Path_49" data-name="Path 49" d="M638.693,170.232h-1.041v-3.751a2.831,2.831,0,0,0-.335-1.571,1.266,1.266,0,0,0-1.125-.484,1.389,1.389,0,0,0-1.139.613,2.332,2.332,0,0,0-.47,1.467v3.727h-1.041v-3.879q0-1.927-1.487-1.927a1.378,1.378,0,0,0-1.137.587,2.387,2.387,0,0,0-.446,1.5v3.727H629.43V163.7h1.041v1.033h.026a2.218,2.218,0,0,1,2.027-1.185,1.894,1.894,0,0,1,1.17.373,1.873,1.873,0,0,1,.682.979,2.338,2.338,0,0,1,2.17-1.352q2.156,0,2.156,2.659Z" transform="translate(-520.18 -135.158)" fill="#245a81"/>
    <path id="Path_50" data-name="Path 50" d="M701.687,169.286h-.026v3.949H700.62V163.7h1.041v1.149h.026a2.473,2.473,0,0,1,2.256-1.3,2.4,2.4,0,0,1,1.97.868,3.625,3.625,0,0,1,.708,2.352,4.056,4.056,0,0,1-.8,2.624,2.692,2.692,0,0,1-2.18,1,2.184,2.184,0,0,1-1.958-1.1m-.026-2.635v.911a1.944,1.944,0,0,0,.521,1.375,1.876,1.876,0,0,0,2.826-.161,3.4,3.4,0,0,0,.538-2.038,2.63,2.63,0,0,0-.5-1.71,1.67,1.67,0,0,0-1.366-.62,1.85,1.85,0,0,0-1.467.635,2.331,2.331,0,0,0-.555,1.592" transform="translate(-579.013 -135.157)" fill="#245a81"/>
    <rect id="Rectangle_4" data-name="Rectangle 4" width="133.791" height="47.416" fill="none"/>
  </g>
</svg>
